HIERARCHY
ROOT joint_Root
{
	OFFSET 0.0 0.0 0.0
	CHANNELS 6 Xposition Yposition Zposition Zrotation Xrotation Yrotation 
	JOINT Hips
	{
		OFFSET -0.726466 93.3139 -2.00062
		CHANNELS 6 Xposition Yposition Zposition Zrotation Xrotation Yrotation 
		JOINT Spine
		{
			OFFSET 15.7357 0.0 0.0
			CHANNELS 6 Xposition Yposition Zposition Zrotation Xrotation Yrotation 
			JOINT Chest
			{
				OFFSET 8.98455 -0.406207 0.0
				CHANNELS 6 Xposition Yposition Zposition Zrotation Xrotation Yrotation 
				JOINT Neck
				{
					OFFSET 16.3773 0.0 0.0
					CHANNELS 6 Xposition Yposition Zposition Zrotation Xrotation Yrotation 
					JOINT Head
					{
						OFFSET 6.45672 0.0 0.0
						CHANNELS 6 Xposition Yposition Zposition Zrotation Xrotation Yrotation 
						End Site
						{
							OFFSET 0.0 0.0 0.0
						}
					}
				}
				JOINT Shoulder_L
				{
					OFFSET 12.9942 -0.242716 4.98039
					CHANNELS 6 Xposition Yposition Zposition Zrotation Xrotation Yrotation 
					JOINT UpperArm_L
					{
						OFFSET 5.34809 0.0 0.0
						CHANNELS 6 Xposition Yposition Zposition Zrotation Xrotation Yrotation 
						JOINT LowerArm_L
						{
							OFFSET 24.3286 1.87007e-05 0.0
							CHANNELS 6 Xposition Yposition Zposition Zrotation Xrotation Yrotation 
							JOINT Hand_L
							{
								OFFSET 22.2916 0.0 0.0
								CHANNELS 6 Xposition Yposition Zposition Zrotation Xrotation Yrotation 
								End Site
								{
									OFFSET 0.0 0.0 0.0
								}
							}
						}
					}
				}
				JOINT Shoulder_R
				{
					OFFSET 12.9945 -0.242716 -4.98039
					CHANNELS 6 Xposition Yposition Zposition Zrotation Xrotation Yrotation 
					JOINT UpperArm_R
					{
						OFFSET -5.34813 0.0 0.0
						CHANNELS 6 Xposition Yposition Zposition Zrotation Xrotation Yrotation 
						JOINT LowerArm_R
						{
							OFFSET -24.3289 0.000322201 0.0
							CHANNELS 6 Xposition Yposition Zposition Zrotation Xrotation Yrotation 
							JOINT Hand_R
							{
								OFFSET -22.2915 -0.000108084 0.0
								CHANNELS 6 Xposition Yposition Zposition Zrotation Xrotation Yrotation 
								End Site
								{
									OFFSET 0.0 0.0 0.0
								}
							}
						}
					}
				}
			}
		}
		JOINT UpperLeg_L
		{
			OFFSET -2.19248 -6.46944 0.0
			CHANNELS 6 Xposition Yposition Zposition Zrotation Xrotation Yrotation 
			JOINT LowerLeg_L
			{
				OFFSET 39.0811 0.0 -1.23785e-05
				CHANNELS 6 Xposition Yposition Zposition Zrotation Xrotation Yrotation 
				JOINT Foot_L
				{
					OFFSET 40.9854 0.0 -1.26872e-05
					CHANNELS 6 Xposition Yposition Zposition Zrotation Xrotation Yrotation 
					JOINT Toes_L
					{
						OFFSET 11.7543 0.0 0.0
						CHANNELS 6 Xposition Yposition Zposition Zrotation Xrotation Yrotation 
						End Site
						{
							OFFSET 0.0 0.0 0.0
						}
					}
				}
			}
		}
		JOINT UpperLeg_R
		{
			OFFSET -2.19251 6.46944 0.0
			CHANNELS 6 Xposition Yposition Zposition Zrotation Xrotation Yrotation 
			JOINT LowerLeg_R
			{
				OFFSET -39.0811 -0.00228153 -0.0401928
				CHANNELS 6 Xposition Yposition Zposition Zrotation Xrotation Yrotation 
				JOINT Foot_R
				{
					OFFSET -40.9854 0.0 0.0
					CHANNELS 6 Xposition Yposition Zposition Zrotation Xrotation Yrotation 
					JOINT Toes_R
					{
						OFFSET -11.7543 0.0 0.0
						CHANNELS 6 Xposition Yposition Zposition Zrotation Xrotation Yrotation 
						End Site
						{
							OFFSET 0.0 0.0 0.0
						}
					}
				}
			}
		}
	}
}
MOTION
Frames:	8
Frame Time:	0.0333333
0.000000 0.000000 0.000000 0.000000 0.000000 -0.000000 -8.351220 90.330800 510.429000 -83.443900 2.415650 178.088000 15.735700 0.000005 -0.000001 73.737100 81.105900 -72.114200 8.984550 -0.406207 -0.000000 9.408460 -4.930280 3.650850 16.377300 -0.000001 -0.000001 10.606000 0.722238 -0.642153 6.456720 -0.000001 -0.000000 2.546450 5.679070 -0.182470 12.994200 -0.242716 4.980390 -88.379300 -4.307770 -69.359500 5.348090 -0.000007 -0.000001 -44.556600 23.142400 -32.185500 24.328600 0.000019 0.000005 -2.526990 -1.990350 -51.790900 22.291600 -0.000001 0.000005 7.546130 5.597930 -11.219300 12.994500 -0.242716 -4.980390 88.812200 2.377810 -63.446800 -5.348130 -0.000001 -0.000004 -52.282900 31.002800 -3.662670 -24.328900 0.000322 -0.000009 -3.856890 -5.663590 -34.331000 -22.291500 -0.000108 -0.000004 -0.025999 5.532170 -7.890610 -2.192480 -6.469440 -0.000000 -172.169000 -5.024190 3.486660 39.081100 -0.000007 -0.000012 -0.195450 0.503044 21.233200 40.985400 -0.000006 -0.000013 -0.091464 0.584860 -76.649500 11.754300 -0.000000 0.000003 -0.000902 -0.001556 -16.595300 -2.192510 6.469440 -0.000001 -174.624000 19.383900 148.813000 -39.081100 -0.002282 -0.040193 0.073010 -0.072923 43.722600 -40.985400 0.000008 0.000006 -2.805680 -5.033440 -56.565400 -11.754300 -0.000006 -0.000006 -0.017207 -0.151296 -22.749700
0.000000 0.000000 0.000000 0.000000 0.000000 -0.000000 -7.973490 89.781100 507.872000 -83.640000 1.008450 177.501000 15.735700 0.000005 -0.000001 71.313600 80.892500 -69.514100 8.984550 -0.406207 -0.000000 9.618680 -5.772870 4.084830 16.377300 -0.000001 -0.000001 10.759700 0.246374 -0.367910 6.456720 -0.000001 -0.000000 2.095450 5.750440 -0.171113 12.994200 -0.242716 4.980390 -88.433100 -4.240260 -69.698100 5.348090 -0.000007 -0.000001 -38.777500 22.324600 -36.046900 24.328600 0.000019 0.000005 -3.172980 -2.291880 -54.194300 22.291600 -0.000001 0.000005 7.226890 5.602760 -11.508400 12.994500 -0.242716 -4.980390 88.814400 2.267010 -62.381400 -5.348130 -0.000001 -0.000004 -50.752800 31.008800 -2.347400 -24.328900 0.000322 -0.000009 -4.087590 -5.801610 -35.250900 -22.291500 -0.000108 -0.000004 -0.273153 5.536780 -8.097110 -2.192480 -6.469440 -0.000000 -171.833000 -5.446230 5.151740 39.081100 -0.000007 -0.000012 -0.086951 0.237264 20.126500 40.985400 -0.000006 -0.000013 2.011000 1.660930 -78.052900 11.754300 -0.000000 0.000003 -0.639631 -0.791888 -16.080100 -2.192510 6.469440 -0.000001 -173.286000 19.603000 146.971000 -39.081100 -0.002282 -0.040193 0.038756 -0.052301 34.139400 -40.985400 0.000008 0.000006 -3.765600 -2.154230 -54.808800 -11.754300 -0.000006 -0.000006 -0.016256 -0.145587 -22.515100
0.000000 0.000000 0.000000 0.000000 0.000000 -0.000000 -7.521100 89.039500 505.082000 -84.070200 -0.296593 176.900000 15.735700 0.000005 -0.000001 69.768200 80.656200 -67.848100 8.984550 -0.406207 -0.000000 9.924690 -6.386760 4.395890 16.377300 -0.000001 -0.000001 10.629800 -0.228586 0.018995 6.456720 -0.000001 -0.000000 1.603900 5.591230 -0.078726 12.994200 -0.242716 4.980390 -88.443700 -4.289350 -70.036400 5.348090 -0.000007 -0.000001 -34.411700 21.212000 -38.876800 24.328600 0.000019 0.000005 -2.842740 -1.915170 -56.061600 22.291600 -0.000001 0.000005 7.462680 5.601680 -11.443600 12.994500 -0.242716 -4.980390 88.920200 1.992450 -61.536800 -5.348130 -0.000001 -0.000004 -50.106600 30.460300 -1.092420 -24.328900 0.000322 -0.000009 -4.697170 -6.478100 -36.057600 -22.291500 -0.000108 -0.000004 -0.550275 5.538330 -8.166650 -2.192480 -6.469440 -0.000000 -171.434000 -6.186020 6.597070 39.081100 -0.000007 -0.000012 -0.002575 0.007180 19.724900 40.985400 -0.000006 -0.000013 3.603150 3.182530 -79.457100 11.754300 -0.000000 0.000003 -0.736904 -0.911793 -16.560100 -2.192510 6.469440 -0.000001 -172.593000 19.280700 145.866000 -39.081100 -0.002282 -0.040193 0.016546 -0.029760 23.971300 -40.985400 0.000008 0.000006 -4.953610 0.150953 -51.474200 -11.754300 -0.000006 -0.000006 -0.016737 -0.148490 -22.634400
0.000000 0.000000 0.000000 0.000000 0.000000 -0.000000 -6.939530 88.127900 501.917000 -84.703700 -1.940550 176.228000 15.735700 0.000005 -0.000001 68.015600 80.471300 -65.961600 8.984550 -0.406207 -0.000000 10.092500 -7.047660 4.732360 16.377300 -0.000001 -0.000001 10.434700 -0.720901 0.409803 6.456720 -0.000001 -0.000000 1.093950 5.290390 -0.055113 12.994200 -0.242716 4.980390 -88.419900 -4.426110 -70.330700 5.348090 -0.000007 -0.000001 -31.822900 20.357100 -40.572600 24.328600 0.000019 0.000005 -2.014410 -1.300260 -57.174800 22.291600 -0.000001 0.000005 8.040350 5.603510 -11.552600 12.994500 -0.242716 -4.980390 89.099600 1.609960 -60.775600 -5.348130 -0.000001 -0.000004 -50.091600 29.427300 0.245988 -24.328900 0.000322 -0.000009 -4.979040 -6.645800 -36.965400 -22.291500 -0.000108 -0.000004 -0.805740 5.536280 -8.074170 -2.192480 -6.469440 -0.000000 -170.909000 -6.113650 7.301040 39.081100 -0.000007 -0.000012 -0.010661 0.028126 20.758700 40.985400 -0.000006 -0.000013 3.309800 4.829830 -80.039000 11.754300 -0.000000 0.000003 -1.146880 -1.386930 -18.332900 -2.192510 6.469440 -0.000001 -171.941000 19.838300 145.266000 -39.081100 -0.002282 -0.040193 0.004670 -0.005191 14.456500 -40.985400 0.000008 0.000006 -6.534500 0.477197 -50.760800 -11.754300 -0.000006 -0.000006 -0.016022 -0.144157 -22.456400
0.000000 0.000000 0.000000 0.000000 0.000000 -0.000000 -6.176680 87.108100 498.212000 -85.436200 -3.959300 175.803000 15.735700 0.000005 -0.000001 66.026200 80.229200 -63.773300 8.984550 -0.406207 -0.000000 10.320300 -7.838190 5.217400 16.377300 -0.000001 -0.000001 10.054800 -1.286980 0.602203 6.456720 -0.000001 -0.000000 0.705111 4.945240 -0.066290 12.994200 -0.242716 4.980390 -88.431500 -4.480060 -70.682000 5.348090 -0.000007 -0.000001 -30.988800 20.000800 -40.967900 24.328600 0.000019 0.000005 -1.020460 -0.639602 -57.931300 22.291600 -0.000001 0.000005 8.676680 5.602000 -11.464400 12.994500 -0.242716 -4.980390 89.300400 1.215600 -60.074800 -5.348130 -0.000001 -0.000004 -50.334800 28.466500 1.274380 -24.328900 0.000322 -0.000009 -5.158290 -6.710300 -37.682300 -22.291500 -0.000108 -0.000004 -0.571061 5.535540 -8.041250 -2.192480 -6.469440 -0.000000 -170.224000 -5.353970 7.933890 39.081100 -0.000007 -0.000012 -0.026407 0.063474 22.588800 40.985400 -0.000006 -0.000013 2.798010 6.473190 -79.446200 11.754300 -0.000000 0.000003 -2.182670 -2.458520 -21.553400 -2.192510 6.469440 -0.000001 -170.594000 22.099000 144.338000 -39.081100 -0.002282 -0.040193 0.001987 0.008609 8.937140 -40.985400 0.000008 0.000006 -7.831470 -0.738430 -52.658500 -11.754300 -0.000006 -0.000006 -0.016357 -0.146198 -22.540200
0.000000 0.000000 0.000000 0.000000 0.000000 -0.000000 -5.206990 86.026600 493.790000 -86.045800 -5.902770 175.630000 15.735700 0.000005 -0.000001 64.077600 79.965500 -61.568500 8.984550 -0.406207 -0.000000 10.568500 -8.652530 5.824460 16.377300 -0.000001 -0.000001 9.705580 -1.677440 0.704597 6.456720 -0.000001 -0.000000 0.294854 4.607980 -0.256452 12.994200 -0.242716 4.980390 -88.478400 -4.386230 -70.846300 5.348090 -0.000007 -0.000001 -31.372300 20.379700 -40.199100 24.328600 0.000019 0.000005 0.209076 0.128408 -58.435500 22.291600 -0.000001 0.000005 9.197720 5.598100 -11.230300 12.994500 -0.242716 -4.980390 89.440200 0.958713 -59.718100 -5.348130 -0.000001 -0.000004 -50.515400 27.836100 1.867340 -24.328900 0.000322 -0.000009 -4.951260 -6.296210 -38.300600 -22.291500 -0.000108 -0.000004 -0.683555 5.532160 -7.890410 -2.192480 -6.469440 -0.000000 -169.405000 -3.884100 8.867770 39.081100 -0.000007 -0.000012 -0.054494 0.118685 24.662200 40.985400 -0.000006 -0.000013 2.553910 7.396220 -76.751400 11.754300 -0.000000 0.000003 -2.423760 -2.461370 -28.668700 -2.192510 6.469440 -0.000001 -168.928000 24.347300 140.793000 -39.081100 -0.002282 -0.040193 -0.035245 0.158975 13.640100 -40.985400 0.000008 0.000006 -6.250400 -3.100100 -55.428500 -11.754300 -0.000006 -0.000006 -0.016408 -0.146512 -22.553100
0.000000 0.000000 0.000000 0.000000 0.000000 -0.000000 -4.049060 85.151900 488.886000 -85.511900 -6.930840 174.614000 15.735700 0.000005 -0.000001 63.134400 80.330700 -60.027700 8.984550 -0.406207 -0.000000 9.811210 -8.632030 6.960580 16.377300 -0.000001 -0.000001 9.927190 -2.024730 0.690620 6.456720 -0.000001 -0.000000 0.028972 4.325920 -0.693858 12.994200 -0.242716 4.980390 -88.707000 -3.767400 -71.041600 5.348090 -0.000007 -0.000001 -32.130700 22.037700 -38.567800 24.328600 0.000019 0.000005 1.323150 0.828012 -57.971700 22.291600 -0.000001 0.000005 9.386920 5.605670 -11.690700 12.994500 -0.242716 -4.980390 89.347100 1.125100 -59.872200 -5.348130 -0.000001 -0.000004 -50.311800 27.600200 2.542670 -24.328900 0.000322 -0.000009 -4.703700 -5.855070 -38.882000 -22.291500 -0.000108 -0.000004 -0.653365 5.531250 -7.850340 -2.192480 -6.469440 -0.000000 -167.240000 -3.483830 9.302250 39.081100 -0.000007 -0.000012 -0.053329 0.105535 26.808200 40.985400 -0.000006 -0.000013 1.814370 8.446450 -74.271600 11.754300 -0.000000 0.000003 -0.063533 -0.343102 -30.759500 -2.192510 6.469440 -0.000001 -166.706000 23.046500 134.962000 -39.081100 -0.002282 -0.040193 0.101924 -0.223315 23.825100 -40.985400 0.000008 0.000006 7.355900 -5.366900 -50.765500 -11.754300 -0.000006 -0.000006 -0.026385 -0.200389 -24.774500
0.000000 0.000000 0.000000 0.000000 0.000000 -0.000000 -2.798940 84.446400 483.284000 -84.196800 -7.298720 174.440000 15.735700 0.000005 -0.000001 63.218700 80.790500 -59.306600 8.984550 -0.406207 -0.000000 9.040840 -8.213360 8.478910 16.377300 -0.000001 -0.000001 10.119600 -2.216110 0.345295 6.456720 -0.000001 -0.000000 0.123501 4.075410 -1.480650 12.994200 -0.242716 4.980390 -89.079700 -2.647260 -70.821400 5.348090 -0.000007 -0.000001 -33.703300 24.964800 -35.718200 24.328600 0.000019 0.000005 3.492240 2.244150 -57.318800 22.291600 -0.000001 0.000005 9.010560 5.598450 -11.260700 12.994500 -0.242716 -4.980390 89.134200 1.506370 -60.107500 -5.348130 -0.000001 -0.000004 -49.515900 27.897300 2.635060 -24.328900 0.000322 -0.000009 -4.400380 -5.484910 -38.829200 -22.291500 -0.000108 -0.000004 -0.571213 5.530110 -7.799800 -2.192480 -6.469440 -0.000000 -164.371000 -3.164790 10.166600 39.081100 -0.000007 -0.000012 -0.029158 0.051009 29.754300 40.985400 -0.000006 -0.000013 1.604810 9.110960 -68.923600 11.754300 -0.000000 0.000003 -0.153758 -0.562116 -40.374100 -2.192510 6.469440 -0.000001 -167.829000 19.970200 133.305000 -39.081100 -0.002282 -0.040193 0.108418 -0.166509 32.265300 -40.985400 0.000008 0.000006 5.589180 -8.233740 -45.558500 -11.754300 -0.000006 -0.000006 -0.026326 -0.200100 -24.762500
